<?xml version="1.0" standalone="no"?>
<!DOCTYPE svg PUBLIC "-//W3C//DTD SVG 20010904//EN"
 "http://www.w3.org/TR/2001/REC-SVG-20010904/DTD/svg10.dtd">
<svg version="1.0" xmlns="http://www.w3.org/2000/svg"
 width="320.000000pt" height="320.000000pt" viewBox="0 0 320.000000 320.000000"
 preserveAspectRatio="xMidYMid meet">
<metadata>
Created by potrace 1.11, written by Peter Selinger 2001-2013
</metadata>
<g transform="translate(0.000000,320.000000) scale(0.100000,-0.100000)"
fill="#000000" stroke="none">
<path d="M1500 3150 l0 -50 -150 0 -150 0 0 -50 0 -50 -100 0 -100 0 0 -50 0
-50 -50 0 -50 0 0 -50 0 -50 -150 0 -150 0 0 -50 0 -50 -100 0 -100 0 0 -50 0
-50 -50 0 -50 0 0 -100 0 -100 -50 0 -50 0 0 -150 0 -150 -50 0 -50 0 0 -450
0 -450 -50 0 -50 0 0 -600 0 -600 150 0 150 0 0 50 0 50 50 0 50 0 0 50 0 50
50 0 50 0 0 50 0 50 50 0 50 0 0 100 0 100 50 0 50 0 0 250 0 250 50 0 50 0 0
-50 0 -50 100 0 100 0 0 -50 0 -50 100 0 100 0 0 -50 0 -50 100 0 100 0 0 -50
0 -50 -250 0 -250 0 0 -100 0 -100 -50 0 -50 0 0 -100 0 -100 -50 0 -50 0 0
-50 0 -50 -50 0 -50 0 0 -50 0 -50 450 0 450 0 0 50 0 50 150 0 150 0 0 -50 0
-50 150 0 150 0 0 50 0 50 150 0 150 0 0 50 0 50 100 0 100 0 0 50 0 50 50 0
50 0 0 150 0 150 50 0 50 0 0 50 0 50 50 0 50 0 0 50 0 50 50 0 50 0 0 100 0
100 50 0 50 0 0 200 0 200 -50 0 -50 0 0 50 0 50 -50 0 -50 0 0 50 0 50 -50 0
-50 0 0 50 0 50 -100 0 -100 0 0 350 0 350 -50 0 -50 0 0 50 0 50 250 0 250 0
0 250 0 250 -50 0 -50 0 0 50 0 50 -150 0 -150 0 0 50 0 50 -550 0 -550 0 0
-50z m400 -1000 l0 -50 -50 0 -50 0 0 50 0 50 50 0 50 0 0 -50z m-900 -100 l0
-50 100 0 100 0 0 -50 0 -50 100 0 100 0 0 -100 0 -100 -50 0 -50 0 0 -150 0
-150 50 0 50 0 0 -50 0 -50 50 0 50 0 0 -50 0 -50 100 0 100 0 0 -50 0 -50
100 0 100 0 0 -50 0 -50 -100 0 -100 0 0 50 0 50 -150 0 -150 0 0 50 0 50 -50
0 -50 0 0 50 0 50 -300 0 -300 0 0 -100 0 -100 -50 0 -50 0 0 300 0 300 50 0
50 0 0 100 0 100 50 0 50 0 0 100 0 100 100 0 100 0 0 -50z m1600 -850 l0
-100 -50 0 -50 0 0 100 0 100 50 0 50 0 0 -100z"/>
</g>
</svg>
